<?xml version="1.0" encoding="UTF-8" standalone="no"?>
<svg xmlns="http://www.w3.org/2000/svg" version="1.1" viewBox="0 0 248 293.9">
<style>.s0{fill:#ffde00;}.s1{fill:#000000;}</style>
<g transform="translate(-254.56 -414.96)">
<g transform="translate(-118.57 -93.283)">
<g transform="matrix(1.25 0 0 -1.25 618.7 511.12)">
<path d="m0 0c-1.1 1.1-2.3 1.4-4.8 1.4h-92.4-0.1-92.5c-2.1 0-3.6-0.2-4.6-1.3-1.2-1.3-1.4-3.1-0.8-4.6 0.8-2 93.4-222.8 93.9-223.9s1.6-3.5 4.1-3.5c2.4 0 3.6 2.4 4.1 3.5 0.7 1.5 93.1 221.9 93.9 223.9 0.6 1.8 0.3 3.4-0.8 4.5" fill="#ffde00"/>
</g>
<g transform="matrix(1.25 0 0 -1.25 497.12 802.19)">
<path d="m0 0c-1.6 0-2.7 0.8-3.5 1.7s-1.2 1.9-1.4 2.4c-0.5 1.1-93 221.8-93.9 223.9-0.3 0.6-0.4 1.3-0.4 2 0 1.3 0.4 2.6 1.4 3.6 1.3 1.3 3.1 1.5 5.3 1.5h92.5 0.1 92.4c1.3 0 2.3-0.1 3.2-0.3s1.7-0.7 2.3-1.4l-0.7-0.6 0.7 0.6c0.8-0.9 1.3-2 1.3-3.3 0-0.7-0.2-1.5-0.5-2.2-0.8-1.9-93.2-222.3-93.9-223.8-0.3-0.6-0.7-1.5-1.4-2.4-0.8-0.9-2-1.7-3.5-1.7zm-96.4 232.3c-0.6-0.6-0.9-1.5-0.9-2.3 0-0.5 0.1-0.9 0.3-1.3 0.7-2 93.3-222.8 93.8-223.9 0.2-0.5 0.6-1.3 1.1-1.9 0.6-0.6 1.2-1 2.1-1s1.5 0.4 2 1c0.6 0.6 1 1.4 1.2 2 0.6 1.4 93.1 221.8 93.8 223.8 0.2 0.6 0.3 1.1 0.3 1.5 0 0.8-0.3 1.4-0.8 2-0.4 0.5-0.8 0.7-1.4 0.8-0.6 0.2-1.5 0.2-2.7 0.2h-92.4-0.1-92.5-0.1c-2.1 0-3.2-0.3-3.9-1"/>
</g>
<g transform="matrix(1.25 0 0 -1.25 611.52 516.6)">
<path d="m0 0c-0.4 0.5-0.9 0.6-2.6 0.6h-89-89c-1.6 0-2.1-0.3-2.4-0.6-0.4-0.4-0.5-1.1 0-2.1 0.3-0.6 89-212.3 89.2-213 0.4-0.9 0.8-1.7 2.2-1.7 1.3 0 1.8 0.9 2.2 1.7 0.4 0.9 89 212.3 89.2 213 0.5 0.8 0.7 1.4 0.2 2.1"/>
</g>
<g transform="matrix(1.25 0 0 -1.25 497.13 774.22)">
<path d="m0 0 84.6 201.7h-169.2l84.6-201.7" fill="#fff"/>
</g>
<g transform="matrix(1.25 0 0 -1.25 497.13 761.16)">
<path d="m0 0 70.6 168.5h-141.2l70.6-168.5"/>
</g>
<g transform="matrix(1.25 0 0 -1.25 518.46 634.21)">
<path d="m0 0c-9.9 1.6-17.1 1.5-17.1 1.5s-7.1 0.1-17.1-1.5c-9.9-1.6-21.4-5.1-21.4-5.1l38.5-91.6 38.3 91.4c0.1 0-11.3 3.7-21.2 5.3" fill="#ffde00"/>
</g>
<g transform="matrix(1.25 0 0 -1.25 533.14 656.41)">
<path d="m0 0c-0.8 0.3-2.9 1.5-4.4 2.5-1.7 1.2-3.2 2.4-5.1 4.3-1.4 1.4-2.4 1.9-3.5 1.9-1.5 0-3-0.4-4-1.4-0.8-0.9-1.2-1.9-1.5-3.4-0.4-1.8-3-11.3-3.3-12.7-0.3-1.2-0.4-1.5-1.2-1.5-0.7 0-0.8 0.4-1.1 1.7-0.3 1.1-0.5 1.8-0.6 2.4-0.2 0.8-0.2 1.2-0.2 1.2h2.4s-1.5 2.6-1.9 4c-0.4 1.2-0.3 2.8-0.3 2.8s1.2-0.4 1.8-0.4c0.5-0.1 0.7 0.2 0.3 0.8-0.3 0.7-1.1 2.9-1.2 3.8 0 0.6 0 1.5 0.2 2.1 0.1 0.3 0.3 0.6 1 1 0.5 0.3 1.5 0.6 1.8 0.7s-1 0.4-2.2 0.6-2 0.8-2.4 0.8c-0.3 0.1-0.8 0.4-1.9 0.6 0 0-0.8 0.1-1.4-0.1s-0.8-0.6-1.2-0.8c-0.2-0.1-0.3-0.1-1.1-0.1-0.9-0.1-1.7-0.1-2.7-0.7-1.1-0.7-1.5-2.8-1.2-2.7 0.4 0.1 1.5 0.6 2.1 0.7s1.3-0.1 1.5-0.1c0.6-0.3 0.7-0.4 0.8-0.7 0.3-0.6 0.3-1.6 0.2-1.7s-0.7 0.6-1.5 1c-0.5 0.3-2.6 0.1-2.9 0.1-0.7 0.1-1.1 0.6-1.4 0.8s-0.5 0.7-0.8 0.9c-0.2 0.2-1 0.6-1 0.1 0.1-0.5 0.4-1.4 1.2-2.1 1-0.8 2.8-0.9 2.8-0.9s0-0.5 0.5-1 1.2-1 2.1-1.2c0.6-0.1 0.7-0.2 0.6-0.4 0-0.3-0.1-0.5-0.3-1.4-0.3-1.2-0.5-1.7-0.8-2.6-0.3-0.8-2-4.1-2-4.1h2.4s0-0.3-0.2-1.2c-0.2-0.7-0.2-1.1-0.6-2.4-0.3-1-0.4-1.3-0.7-1.6-0.1-0.1-0.3-0.2-0.7-0.1-0.6 0-1.1 0.4-1.4 1.5-0.4 1.3-3.2 10.9-3.6 12.7-0.3 1.5-0.8 2.8-1.6 3.6-1 1-2.8 1.2-4.3 1.2-1.1 0-2.1-0.5-3.5-1.9-2-1.9-3.4-3.2-5.1-4.3-1.5-1-3.6-2.2-4.4-2.5-0.5-0.2-0.3-0.6 0.5-1.8 0.7-1 2-1.5 3.7-0.9 0.9 0.2 2.6 1.2 3.9 2 1.2 0.8 2.2 1.7 2.5 1.6 0.4-0.1 0.5-0.8-0.1-1.6-0.4-0.5-0.9-0.8-1.6-1.4-0.8-0.6-3.7-2.5-4.5-2.9-0.7-0.3-1.2-0.5-1.7-0.6s0.1-1.5 0.7-2.1c0.5-0.5 1.1-1 2.6-0.6 0.9 0.3 2.8 1.3 3.7 1.9 1 0.6 2.1 1.5 2.6 1.5s1.2-0.6 0.5-1.5c-0.2-0.2-2.2-1.8-3.6-2.7-1.5-1-3.1-1.8-4.4-2-0.6-0.1 0.7-2 1.8-2.4s3.1 0.8 3.8 1.1 1.6 1 2.3 1.5c0.6 0.4 1.2 0.9 1.5 0.5 0.2-0.4 0.2-0.9-0.1-1.3-0.6-0.7-0.7-0.8-1.6-1.6-1.1-0.9-3.3-2.4-5.2-2.5-0.7 0 0.8-2.4 1.9-2.8 0.6-0.2 2 0.4 2 0.4 0.8 0.3 2.1 1.1 2.7 1.6 0.4 0.3 1.1 0.8 1.6 0.5s0.4-1.1-0.3-1.7c-0.6-0.5-1.3-1.1-2.2-1.7-0.7-0.4-2-1.3-3.4-1.4-0.7 0 1.8-3.4 2.6-3.5 1.4-0.1 3.5 0.7 5.2 1.9 1.4 1 2.2 1.4 2.8 1.6 0.7 0.2 1.3 0.2 2.1 0 0.6-0.2 1-0.4 1.4-0.7s0.6-0.5 0.9-0.9 0.4-0.8 0.4-1.1c0.1-0.4-0.1-0.9-0.7-1.6-1.1-1.3-1.7-1.7-3.7-3.1s-3.8-2.1-3.8-2.1 3.3-1.7 3.4-1.7-0.2-0.8-0.7-1.1c-0.4-0.4-0.5-0.3-0.8-0.4-0.3 0-2.1 0.3-3.3 0.1s-2.2-1.9-1.6-1.9c0.9 0.1 2.2 0.3 2.9 0 0.8-0.3 0-1.5-0.4-2s-1.1-0.9-1.1-0.9l-0.1-2 1.8 0.5 0.7 1.4c0.3 0.6 0.9 0.9 1.3 1s0.8-0.4 1-1.1c0.1-0.7-0.1-2.2 0.2-2.2 0.5-0.1 1.2 1.9 1.2 2.7s-0.6 2.1-1 2.6c-0.4 0.6-0.2 0.9 0 1.3 0.3 0.5 1.2 0.8 1.2 0.8s2.1-3.6 2.2-3.5c0.1 0.5 0.4 3.8 1 5.7 0.5 1.9 0.5 2.3 0.9 3.1 0.6 1.1 0.9 1.8 1.1 1.6 0.2-0.3 0.1-1.6 0.1-1.6s0.4-12.6 0.4-16.2-3-7.1-3-7.1h3.5c0-0.7 0.2-5.5 0.9-5.5s0.9 4.8 0.9 5.5h3.5s-3 3.5-3 7.2c0 3.6 0.4 16.2 0.4 16.2s-0.1 1.3 0.1 1.6 0.5-0.5 1.1-1.6c0.5-0.9 0.5-1.2 1.1-3.1 0.5-1.9 0.9-5.2 1-5.7 0-0.1 2.2 3.5 2.2 3.5s0.9-0.3 1.2-0.8c0.2-0.3 0.4-0.7 0-1.3s-1-1.8-1-2.6 0.7-2.8 1.2-2.7c0.3 0.1 0.1 1.5 0.2 2.2s0.6 1.3 1 1.1c0.4-0.1 1-0.5 1.3-1s0.7-1.4 0.7-1.4l1.8-0.5-0.1 2s-0.8 0.4-1.1 0.9c-0.4 0.5-1.1 1.7-0.4 2s1.9 0.1 2.9 0c0.6 0-0.4 1.6-1.6 1.9-1.2 0.2-3-0.1-3.3-0.1s-0.4 0-0.8 0.4-0.7 1.1-0.7 1.1c0.1 0 3.4 1.7 3.4 1.7s-1.8 0.6-3.8 2.1c-2 1.4-2.7 1.8-3.8 3.1-0.6 0.7-0.7 1.2-0.7 1.6s0.1 0.7 0.4 1.1c0.2 0.4 0.5 0.6 0.9 0.9s0.9 0.6 1.4 0.7c0.8 0.3 1.4 0.2 2.1 0s1.4-0.6 2.8-1.6c1.6-1.2 3.7-2 5.2-1.9 0.8 0.1 3.4 3.5 2.6 3.5-1.4 0-2.7 0.9-3.4 1.4-0.9 0.6-1.6 1.2-2.2 1.7-0.7 0.6-0.8 1.5-0.3 1.7 0.5 0.3 1.2-0.2 1.6-0.5 0.6-0.5 1.9-1.3 2.7-1.6 0 0 1.4-0.6 2-0.4 1.1 0.4 2.6 2.8 1.9 2.8-1.8 0.1-4.1 1.6-5.2 2.5-0.9 0.7-1.1 0.8-1.6 1.6-0.4 0.4-0.4 1-0.1 1.3 0.2 0.4 0.8 0 1.5-0.5s1.6-1.1 2.3-1.5c0.7-0.3 2.7-1.5 3.8-1.1 1.1 0.5 2.4 2.3 1.8 2.4-1.3 0.2-2.9 1.1-4.4 2-1.4 0.9-3.4 2.5-3.6 2.7-0.8 0.9 0 1.5 0.5 1.5s1.6-0.9 2.6-1.5c0.9-0.6 2.8-1.6 3.7-1.9 1.5-0.5 2 0.1 2.6 0.6 0.5 0.5 1.2 1.9 0.7 2.1-0.5 0.1-1.1 0.3-1.7 0.6-0.8 0.4-3.7 2.3-4.5 2.9-0.7 0.6-1.2 0.9-1.6 1.4-0.6 0.8-0.5 1.4-0.1 1.6 0.3 0.1 1.3-0.8 2.5-1.6 1.3-0.8 3-1.8 3.9-2 1.8-0.5 3-0.1 3.7 0.9 1 1.3 1.2 1.7 0.7 1.9m-28.4 8.9c-0.5 0-0.9 0.3-0.9 0.7s0.4 0.7 0.9 0.7 0.9-0.3 0.9-0.7-0.4-0.7-0.9-0.7m-0.3-66z"/>
</g>
<g transform="matrix(1.25 0 0 -1.25 416.08 527.38)">
<path d="m0 0h3.8l6.3-15.4h-3.8l-1.3 3.4h-6.3l-1.3-3.4h-3.7l6.3 15.4zm-0.4-9.4h4.3l-2.1 5.6-2.2-5.6z"/>
</g>
<g transform="matrix(1.25 0 0 -1.25 430.76 527.38)">
<path d="m0 0h3.7v-12.5h8.2v-2.8l-11.9-0.1v15.4z"/>
</g>
<g transform="matrix(1.25 0 0 -1.25 448.46 527.38)">
<path d="m0 0h12.5v-2.8h-8.9v-3.3h7.2v-2.6h-7.2v-3.8h9v-2.8l-12.6-0.1v15.4z"/>
</g>
<g transform="matrix(1.25 0 0 -1.25 467.78 527.38)">
<path d="m0 0h4.8l4.4-10.6 4.3 10.6h4.5v-15.4h-3.1v10.9l-4.5-10.9h-2.8l-4.5 10.8v-10.8h-3.1v15.4z"/>
</g>
<g transform="matrix(1.25 0 0 -1.25 500.43 527.38)">
<path d="m0 0h3.8l6.3-15.4h-3.8l-1.3 3.4h-6.3l-1.3-3.4h-3.7l6.3 15.4zm-0.4-9.4h4.3l-2.1 5.6-2.2-5.6z"/>
</g>
<g transform="matrix(1.25 0 0 -1.25 515.11 527.38)">
<path d="m0 0h3.7l7-10.3v10.3h3.5v-15.4h-3.7l-7 10.3v-10.3h-3.5v15.4z"/>
</g>
<g transform="matrix(1.25 0 0 -1.25 537.16 527.38)">
<path d="m0 0h3.7l7-10.3v10.3h3.5v-15.4h-3.7l-7 10.3v-10.3h-3.5v15.4z"/>
</g>
<path d="m559.2 527.4h4.6v19.2h-4.6v-19.2z"/>
<g transform="matrix(1.25 0 0 -1.25 573.89 527.38)">
<path d="m0 0h3.8l6.3-15.4h-3.8l-1.3 3.4h-6.3l-1.3-3.4h-3.7l6.3 15.4zm-0.4-9.4h4.3l-2.1 5.6-2.2-5.6z"/>
</g>
<g transform="matrix(1.25 0 0 -1.25 506.39 563.27)">
<path d="m0 0h-13.2l1.7-4.2-18.1-43.5h5.6l3.5 8.6h23.4l3.7-8.6h13.3l-19.9 47.7zm-19-35.4 10.2 24.7 10.1-24.8h-20.3z" fill="#ffde00"/>
</g>
</g>
</g>
</svg>
